# Blender v2.79 (sub 0) OBJ File: 'untitled.blend'
# www.blender.org
mtllib untitled.mtl
o Cube
v 0.464737 -0.142708 -1.693133
v 0.463814 -0.143160 1.434640
v -1.415675 -0.144761 1.434085
v -1.414751 -0.144310 -1.693689
v 0.464588 0.032598 -1.693107
v 0.463664 0.032146 1.434666
v -1.415824 0.030544 1.434110
v -1.414901 0.030996 -1.693663
vn 0.0009 -1.0000 -0.0001
vn -0.0009 1.0000 0.0001
vn 1.0000 0.0009 0.0003
vn -0.0003 -0.0001 1.0000
vn -1.0000 -0.0009 -0.0003
vn 0.0003 0.0001 -1.0000
usemtl Material
s off
f 1//1 2//1 3//1 4//1
f 5//2 8//2 7//2 6//2
f 1//3 5//3 6//3 2//3
f 2//4 6//4 7//4 3//4
f 3//5 7//5 8//5 4//5
f 5//6 1//6 4//6 8//6
o Cube.005
v -1.158859 0.034033 1.079229
v -1.158859 0.124482 1.079229
v -1.158859 0.034033 1.339423
v -1.158859 0.124482 1.339423
v -1.412155 0.034033 1.079229
v -1.412155 0.124482 1.079229
v -1.412155 0.034033 1.339423
v -1.412155 0.124482 1.339423
vn 1.0000 0.0000 0.0000
vn 0.0000 0.0000 1.0000
vn -1.0000 0.0000 0.0000
vn 0.0000 0.0000 -1.0000
vn 0.0000 -1.0000 0.0000
vn 0.0000 1.0000 0.0000
usemtl None
s off
f 9//7 10//7 12//7 11//7
f 11//8 12//8 16//8 15//8
f 15//9 16//9 14//9 13//9
f 13//10 14//10 10//10 9//10
f 11//11 15//11 13//11 9//11
f 16//12 12//12 10//12 14//12
o Cube.001_Cube.006
v -1.157153 0.034033 0.808527
v -1.157153 0.124482 0.808527
v -1.157153 0.034033 1.068722
v -1.157153 0.124482 1.068722
v -1.410449 0.034033 0.808527
v -1.410449 0.124482 0.808527
v -1.410449 0.034033 1.068722
v -1.410449 0.124482 1.068722
vn 1.0000 0.0000 0.0000
vn 0.0000 0.0000 1.0000
vn -1.0000 0.0000 0.0000
vn 0.0000 0.0000 -1.0000
vn 0.0000 -1.0000 0.0000
vn 0.0000 1.0000 0.0000
usemtl None
s off
f 17//13 18//13 20//13 19//13
f 19//14 20//14 24//14 23//14
f 23//15 24//15 22//15 21//15
f 21//16 22//16 18//16 17//16
f 19//17 23//17 21//17 17//17
f 24//18 20//18 18//18 22//18
o Cube.002_Cube.007
v -1.156298 0.034033 0.535861
v -1.156298 0.124482 0.535861
v -1.156298 0.034033 0.796055
v -1.156298 0.124482 0.796055
v -1.409595 0.034033 0.535861
v -1.409595 0.124482 0.535861
v -1.409595 0.034033 0.796055
v -1.409595 0.124482 0.796055
vn 1.0000 0.0000 0.0000
vn 0.0000 0.0000 1.0000
vn -1.0000 0.0000 0.0000
vn 0.0000 0.0000 -1.0000
vn 0.0000 -1.0000 0.0000
vn 0.0000 1.0000 0.0000
usemtl None
s off
f 25//19 26//19 28//19 27//19
f 27//20 28//20 32//20 31//20
f 31//21 32//21 30//21 29//21
f 29//22 30//22 26//22 25//22
f 27//23 31//23 29//23 25//23
f 32//24 28//24 26//24 30//24
o Cube.003_Cube.008
v -1.157520 0.034033 0.252499
v -1.157520 0.124482 0.252499
v -1.157520 0.034033 0.512693
v -1.157520 0.124482 0.512693
v -1.410817 0.034033 0.252499
v -1.410817 0.124482 0.252499
v -1.410817 0.034033 0.512693
v -1.410817 0.124482 0.512693
vn 1.0000 0.0000 0.0000
vn 0.0000 0.0000 1.0000
vn -1.0000 0.0000 0.0000
vn 0.0000 0.0000 -1.0000
vn 0.0000 -1.0000 0.0000
vn 0.0000 1.0000 0.0000
usemtl None
s off
f 33//25 34//25 36//25 35//25
f 35//26 36//26 40//26 39//26
f 39//27 40//27 38//27 37//27
f 37//28 38//28 34//28 33//28
f 35//29 39//29 37//29 33//29
f 40//30 36//30 34//30 38//30
o Cube.004_Cube.009
v -1.159002 0.029802 -0.034220
v -1.159002 0.120251 -0.034220
v -1.159002 0.029802 0.225974
v -1.159002 0.120251 0.225974
v -1.412299 0.029802 -0.034220
v -1.412299 0.120251 -0.034220
v -1.412299 0.029802 0.225974
v -1.412299 0.120251 0.225974
vn 1.0000 0.0000 0.0000
vn 0.0000 0.0000 1.0000
vn -1.0000 0.0000 0.0000
vn 0.0000 0.0000 -1.0000
vn 0.0000 -1.0000 0.0000
vn 0.0000 1.0000 0.0000
usemtl None
s off
f 41//31 42//31 44//31 43//31
f 43//32 44//32 48//32 47//32
f 47//33 48//33 46//33 45//33
f 45//34 46//34 42//34 41//34
f 43//35 47//35 45//35 41//35
f 48//36 44//36 42//36 46//36
o Cube.006_Cube.010
v -1.140045 0.029802 -1.090391
v -1.140045 0.120251 -1.090391
v -1.140045 0.029802 -0.830196
v -1.140045 0.120251 -0.830196
v -1.393341 0.029802 -1.090391
v -1.393341 0.120251 -1.090391
v -1.393341 0.029802 -0.830196
v -1.393341 0.120251 -0.830196
vn 1.0000 0.0000 0.0000
vn 0.0000 0.0000 1.0000
vn -1.0000 0.0000 0.0000
vn 0.0000 0.0000 -1.0000
vn 0.0000 -1.0000 0.0000
vn 0.0000 1.0000 0.0000
usemtl None
s off
f 49//37 50//37 52//37 51//37
f 51//38 52//38 56//38 55//38
f 55//39 56//39 54//39 53//39
f 53//40 54//40 50//40 49//40
f 51//41 55//41 53//41 49//41
f 56//42 52//42 50//42 54//42
o Cube.007_Cube.011
v -1.161963 0.033968 -1.692234
v -1.161963 0.124417 -1.692234
v -1.161963 0.033968 -1.432039
v -1.161963 0.124417 -1.432039
v -1.415259 0.033968 -1.692234
v -1.415259 0.124417 -1.692234
v -1.415259 0.033968 -1.432039
v -1.415259 0.124417 -1.432039
vn 1.0000 0.0000 0.0000
vn 0.0000 0.0000 1.0000
vn -1.0000 0.0000 0.0000
vn 0.0000 0.0000 -1.0000
vn 0.0000 -1.0000 0.0000
vn 0.0000 1.0000 0.0000
usemtl None
s off
f 57//43 58//43 60//43 59//43
f 59//44 60//44 64//44 63//44
f 63//45 64//45 62//45 61//45
f 61//46 62//46 58//46 57//46
f 59//47 63//47 61//47 57//47
f 64//48 60//48 58//48 62//48
o Cube.008_Cube.012
v -0.792402 0.033968 -1.681782
v -0.792402 0.124417 -1.681782
v -0.792402 0.033968 -1.421587
v -0.792402 0.124417 -1.421587
v -1.045699 0.033968 -1.681782
v -1.045699 0.124417 -1.681782
v -1.045699 0.033968 -1.421587
v -1.045699 0.124417 -1.421587
vn 1.0000 0.0000 0.0000
vn 0.0000 0.0000 1.0000
vn -1.0000 0.0000 0.0000
vn 0.0000 0.0000 -1.0000
vn 0.0000 -1.0000 0.0000
vn 0.0000 1.0000 0.0000
usemtl None
s off
f 65//49 66//49 68//49 67//49
f 67//50 68//50 72//50 71//50
f 71//51 72//51 70//51 69//51
f 69//52 70//52 66//52 65//52
f 67//53 71//53 69//53 65//53
f 72//54 68//54 66//54 70//54
o Cube.009_Cube.013
v -0.429126 0.033968 -1.689979
v -0.429126 0.124417 -1.689979
v -0.429126 0.033968 -1.429785
v -0.429126 0.124417 -1.429785
v -0.682423 0.033968 -1.689979
v -0.682423 0.124417 -1.689979
v -0.682423 0.033968 -1.429785
v -0.682423 0.124417 -1.429785
vn 1.0000 0.0000 0.0000
vn 0.0000 0.0000 1.0000
vn -1.0000 0.0000 0.0000
vn 0.0000 0.0000 -1.0000
vn 0.0000 -1.0000 0.0000
vn 0.0000 1.0000 0.0000
usemtl None
s off
f 73//55 74//55 76//55 75//55
f 75//56 76//56 80//56 79//56
f 79//57 80//57 78//57 77//57
f 77//58 78//58 74//58 73//58
f 75//59 79//59 77//59 73//59
f 80//60 76//60 74//60 78//60
o Cube.010_Cube.014
v -0.058021 0.033968 -1.682618
v -0.058021 0.124417 -1.682618
v -0.058021 0.033968 -1.422423
v -0.058021 0.124417 -1.422423
v -0.311318 0.033968 -1.682618
v -0.311318 0.124417 -1.682618
v -0.311318 0.033968 -1.422423
v -0.311318 0.124417 -1.422423
vn 1.0000 0.0000 0.0000
vn 0.0000 0.0000 1.0000
vn -1.0000 0.0000 0.0000
vn 0.0000 0.0000 -1.0000
vn 0.0000 -1.0000 0.0000
vn 0.0000 1.0000 0.0000
usemtl None
s off
f 81//61 82//61 84//61 83//61
f 83//62 84//62 88//62 87//62
f 87//63 88//63 86//63 85//63
f 85//64 86//64 82//64 81//64
f 83//65 87//65 85//65 81//65
f 88//66 84//66 82//66 86//66
o Cube.011_Cube.015
v 0.432801 0.033968 -1.393230
v 0.432801 0.124417 -1.393230
v 0.432801 0.033968 -1.133036
v 0.432801 0.124417 -1.133036
v 0.179504 0.033968 -1.393230
v 0.179504 0.124417 -1.393230
v 0.179504 0.033968 -1.133036
v 0.179504 0.124417 -1.133036
vn 1.0000 0.0000 0.0000
vn 0.0000 0.0000 1.0000
vn -1.0000 0.0000 0.0000
vn 0.0000 0.0000 -1.0000
vn 0.0000 -1.0000 0.0000
vn 0.0000 1.0000 0.0000
usemtl None
s off
f 89//67 90//67 92//67 91//67
f 91//68 92//68 96//68 95//68
f 95//69 96//69 94//69 93//69
f 93//70 94//70 90//70 89//70
f 91//71 95//71 93//71 89//71
f 96//72 92//72 90//72 94//72
o Cube.012_Cube.017
v 0.458917 0.034033 0.808527
v 0.458917 0.124482 0.808527
v 0.458917 0.034033 1.068722
v 0.458917 0.124482 1.068722
v 0.205620 0.034033 0.808527
v 0.205620 0.124482 0.808527
v 0.205620 0.034033 1.068722
v 0.205620 0.124482 1.068722
vn 1.0000 0.0000 0.0000
vn 0.0000 0.0000 1.0000
vn -1.0000 0.0000 0.0000
vn 0.0000 0.0000 -1.0000
vn 0.0000 -1.0000 0.0000
vn 0.0000 1.0000 0.0000
usemtl None
s off
f 97//73 98//73 100//73 99//73
f 99//74 100//74 104//74 103//74
f 103//75 104//75 102//75 101//75
f 101//76 102//76 98//76 97//76
f 99//77 103//77 101//77 97//77
f 104//78 100//78 98//78 102//78
o Cube.013_Cube.018
v 0.456053 0.034033 1.079229
v 0.456053 0.124482 1.079229
v 0.456053 0.034033 1.339423
v 0.456053 0.124482 1.339423
v 0.202756 0.034033 1.079229
v 0.202756 0.124482 1.079229
v 0.202756 0.034033 1.339423
v 0.202756 0.124482 1.339423
vn 1.0000 0.0000 0.0000
vn 0.0000 0.0000 1.0000
vn -1.0000 0.0000 0.0000
vn 0.0000 0.0000 -1.0000
vn 0.0000 -1.0000 0.0000
vn 0.0000 1.0000 0.0000
usemtl None
s off
f 105//79 106//79 108//79 107//79
f 107//80 108//80 112//80 111//80
f 111//81 112//81 110//81 109//81
f 109//82 110//82 106//82 105//82
f 107//83 111//83 109//83 105//83
f 112//84 108//84 106//84 110//84
